{
  "accessors": [
    {
      "bufferView": 2,
      "componentType": 5126,
      "count": 65532,
      "max": [
        0.1683236062526703,
        0.05858737975358963,
        0.895279049873352
      ],
      "min": [
        -0.16832363605499268,
        -0.047178808599710464,
        0.0014141758438199759
      ],
      "type": "VEC3"
    },
    {
      "bufferView": 2,
      "byteOffset": 786384,
      "componentType": 5126,
      "count": 65532,
      "max": [
        1.0,
        1.0,
        1.0
      ],
      "min": [
        -1.0,
        -1.0,
        -1.0
      ],
      "type": "VEC3"
    },
    {
      "bufferView": 3,
      "componentType": 5126,
      "count": 65532,
      "max": [
        1.0,
        1.0,
        1.0,
        1.0
      ],
      "min": [
        -1.0,
        -1.0,
        -1.0,
        -1.0
      ],
      "type": "VEC4"
    },
    {
      "bufferView": 1,
      "componentType": 5126,
      "count": 65532,
      "max": [
        0.9862983226776123,
        0.9869672060012817
      ],
      "min": [
        0.01303282380104065,
        0.013245738111436367
      ],
      "type": "VEC2"
    },
    {
      "bufferView": 1,
      "byteOffset": 524256,
      "componentType": 5126,
      "count": 65532,
      "max": [
        0.9862983226776123,
        0.9869672060012817
      ],
      "min": [
        0.01303282380104065,
        0.013245738111436367
      ],
      "type": "VEC2"
    },
    {
      "bufferView": 1,
      "byteOffset": 1048512,
      "componentType": 5126,
      "count": 65532,
      "max": [
        0.9862983226776123,
        0.9869672060012817
      ],
      "min": [
        0.01303282380104065,
        0.013245738111436367
      ],
      "type": "VEC2"
    },
    {
      "bufferView": 0,
      "componentType": 5125,
      "count": 343668,
      "type": "SCALAR"
    },
    {
      "bufferView": 2,
      "byteOffset": 1572768,
      "componentType": 5126,
      "count": 2355,
      "max": [
        0.1306072473526001,
        0.05858737602829933,
        0.8880610466003418
      ],
      "min": [
        -0.1599700003862381,
        -0.04584796726703644,
        0.007900243625044823
      ],
      "type": "VEC3"
    },
    {
      "bufferView": 2,
      "byteOffset": 1601028,
      "componentType": 5126,
      "count": 2355,
      "max": [
        0.9999606609344482,
        1.0,
        1.0
      ],
      "min": [
        -0.9999607801437378,
        -1.0,
        -1.0
      ],
      "type": "VEC3"
    },
    {
      "bufferView": 3,
      "byteOffset": 1048512,
      "componentType": 5126,
      "count": 2355,
      "max": [
        0.8114107251167297,
        0.8956674933433533,
        1.0,
        1.0
      ],
      "min": [
        -0.9995197653770447,
        -0.8527120351791382,
        -0.9999991655349731,
        -1.0
      ],
      "type": "VEC4"
    },
    {
      "bufferView": 1,
      "byteOffset": 1572768,
      "componentType": 5126,
      "count": 2355,
      "max": [
        0.9748148918151855,
        0.9751279354095459
      ],
      "min": [
        0.07423684746026993,
        0.018030177801847458
      ],
      "type": "VEC2"
    },
    {
      "bufferView": 1,
      "byteOffset": 1591608,
      "componentType": 5126,
      "count": 2355,
      "max": [
        0.9748148918151855,
        0.9751279354095459
      ],
      "min": [
        0.07423684746026993,
        0.018030177801847458
      ],
      "type": "VEC2"
    },
    {
      "bufferView": 1,
      "byteOffset": 1610448,
      "componentType": 5126,
      "count": 2355,
      "max": [
        0.9748148918151855,
        0.9751279354095459
      ],
      "min": [
        0.07423684746026993,
        0.018030177801847458
      ],
      "type": "VEC2"
    },
    {
      "bufferView": 0,
      "byteOffset": 1374672,
      "componentType": 5125,
      "count": 10830,
      "type": "SCALAR"
    },
    {
      "bufferView": 2,
      "byteOffset": 1629288,
      "componentType": 5126,
      "count": 7709,
      "max": [
        0.024763159453868866,
        0.009325306862592697,
        0.8669673204421997
      ],
      "min": [
        -0.025019578635692596,
        -0.0483567900955677,
        0.17367827892303467
      ],
      "type": "VEC3"
    },
    {
      "bufferView": 2,
      "byteOffset": 1721796,
      "componentType": 5126,
      "count": 7709,
      "max": [
        0.9902291297912598,
        0.9997578263282776,
        0.9998928308486938
      ],
      "min": [
        -0.9902316927909851,
        -0.9998247623443604,
        -0.9995176792144775
      ],
      "type": "VEC3"
    },
    {
      "bufferView": 1,
      "byteOffset": 1629288,
      "componentType": 5126,
      "count": 7709,
      "max": [
        0.16672532260417938,
        0.8464910387992859
      ],
      "min": [
        0.013032834976911545,
        0.10830626636743546
      ],
      "type": "VEC2"
    },
    {
      "bufferView": 0,
      "byteOffset": 1417992,
      "componentType": 5125,
      "count": 42336,
      "type": "SCALAR"
    }
  ],
  "asset": {
    "extras": {
      "author": "AlexseyZaporozhets (https://sketchfab.com/alexseyzaporozhets)",
      "license": "CC-BY-4.0 (http://creativecommons.org/licenses/by/4.0/)",
      "source": "https://sketchfab.com/3d-models/acoustic-guitar-0c5e2094dbbe475cab0414cd422df6bc",
      "title": "Acoustic Guitar"
    },
    "generator": "Sketchfab-16.43.0",
    "version": "2.0"
  },
  "bufferViews": [
    {
      "buffer": 0,
      "byteLength": 1587336,
      "name": "floatBufferViews",
      "target": 34963
    },
    {
      "buffer": 0,
      "byteLength": 1690960,
      "byteOffset": 1587336,
      "byteStride": 8,
      "name": "floatBufferViews",
      "target": 34962
    },
    {
      "buffer": 0,
      "byteLength": 1814304,
      "byteOffset": 3278296,
      "byteStride": 12,
      "name": "floatBufferViews",
      "target": 34962
    },
    {
      "buffer": 0,
      "byteLength": 1086192,
      "byteOffset": 5092600,
      "byteStride": 16,
      "name": "floatBufferViews",
      "target": 34962
    }
  ],
  "buffers": [
    {
      "byteLength": 6178792,
      "uri": "scene.bin"
    }
  ],
  "extensionsUsed": [
    "KHR_materials_specular"
  ],
  "images": [
    {
      "uri": "textures/Guitar_baseColor.png"
    },
    {
      "uri": "textures/Guitar_normal.png"
    }
  ],
  "materials": [
    {
      "doubleSided": true,
      "extensions": {
        "KHR_materials_specular": {
          "specularColorFactor": [
            1.0,
            1.0,
            1.0
          ],
          "specularFactor": 0.3154295327376236
        }
      },
      "name": "Guitar",
      "normalTexture": {
        "index": 1,
        "texCoord": 1
      },
      "pbrMetallicRoughness": {
        "baseColorTexture": {
          "index": 0
        },
        "metallicFactor": 0.05333349587351123,
        "roughnessFactor": 0.3154295327376236
      }
    },
    {
      "doubleSided": true,
      "name": "Chrome.string",
      "pbrMetallicRoughness": {
        "baseColorFactor": [
          0.8,
          0.8,
          0.8,
          1.0
        ],
        "metallicFactor": 0.0,
        "roughnessFactor": 0.7883398951148328
      }
    }
  ],
  "meshes": [
    {
      "name": "Guitar_Guitar_0",
      "primitives": [
        {
          "attributes": {
            "NORMAL": 1,
            "POSITION": 0,
            "TANGENT": 2,
            "TEXCOORD_0": 3,
            "TEXCOORD_1": 4,
            "TEXCOORD_2": 5
          },
          "indices": 6,
          "material": 0,
          "mode": 4
        }
      ]
    },
    {
      "name": "Guitar_Guitar_0",
      "primitives": [
        {
          "attributes": {
            "NORMAL": 8,
            "POSITION": 7,
            "TANGENT": 9,
            "TEXCOORD_0": 10,
            "TEXCOORD_1": 11,
            "TEXCOORD_2": 12
          },
          "indices": 13,
          "material": 0,
          "mode": 4
        }
      ]
    },
    {
      "name": "Guitar_Chrome.string_0",
      "primitives": [
        {
          "attributes": {
            "NORMAL": 15,
            "POSITION": 14,
            "TEXCOORD_0": 16
          },
          "indices": 17,
          "material": 1,
          "mode": 4
        }
      ]
    }
  ],
  "nodes": [
    {
      "children": [
        1
      ],
      "matrix": [
        1.1138612031936646,
        0.0,
        0.0,
        0.0,
        0.0,
        2.4732687080445727e-16,
        -1.1138612031936646,
        0.0,
        0.0,
        1.1138612031936646,
        2.4732687080445727e-16,
        0.0,
        0.0,
        0.0,
        0.0,
        1.0
      ],
      "name": "Sketchfab_model"
    },
    {
      "children": [
        2
      ],
      "matrix": [
        0.009999999776482582,
        0.0,
        0.0,
        0.0,
        0.0,
        0.0,
        0.009999999776482582,
        0.0,
        0.0,
        -0.009999999776482582,
        0.0,
        0.0,
        0.0,
        0.0,
        0.0,
        1.0
      ],
      "name": "03621afe88504da0bd6455a454fb9637.fbx"
    },
    {
      "children": [
        3
      ],
      "name": "RootNode"
    },
    {
      "children": [
        4,
        5,
        6
      ],
      "matrix": [
        100.0,
        0.0,
        0.0,
        0.0,
        0.0,
        -1.629206793918314e-05,
        -99.99999999999868,
        0.0,
        0.0,
        99.99999999999868,
        -1.629206793918314e-05,
        0.0,
        0.0,
        0.0,
        0.0,
        1.0
      ],
      "name": "Guitar"
    },
    {
      "mesh": 0,
      "name": "Guitar_Guitar_0"
    },
    {
      "mesh": 1,
      "name": "Guitar_Guitar_0"
    },
    {
      "mesh": 2,
      "name": "Guitar_Chrome.string_0"
    }
  ],
  "samplers": [
    {
      "magFilter": 9729,
      "minFilter": 9987,
      "wrapS": 10497,
      "wrapT": 10497
    }
  ],
  "scene": 0,
  "scenes": [
    {
      "name": "Sketchfab_Scene",
      "nodes": [
        0
      ]
    }
  ],
  "textures": [
    {
      "sampler": 0,
      "source": 0
    },
    {
      "sampler": 0,
      "source": 1
    }
  ]
}
